<svg xmlns="http://www.w3.org/2000/svg" xmlns:xlink="http://www.w3.org/1999/xlink" width="987.203" height="699.002" viewBox="0 0 987.203 699.002"> <defs> <linearGradient id="a" x1="-9.711" y1="0.5" x2="-10.711" y2="0.5" gradientUnits="objectBoundingBox"> <stop offset="0" stop-color="#d1d3d4"/> <stop offset="1" stop-color="#faeedc"/> </linearGradient> <linearGradient id="b" x1="-2.711" y1="1.052" x2="-2.711" y2="-0.002" xlink:href="#a"/> </defs> <g transform="translate(-996 -384)"> <path d="M0,64.167A64.168,64.168,0,0,1,64.167,0h0a64.168,64.168,0,0,1,64.167,64.167h0a64.168,64.168,0,0,1-64.167,64.167h0A64.168,64.168,0,0,1,0,64.167Z" transform="translate(1508.666 384)" fill="#ccf6e8"/> <path d="M884.643,0h0V0L53.494,0A465.88,465.88,0,0,0,3.551,159.71,475.875,475.875,0,0,0,2.423,265.7,469.923,469.923,0,0,0,9.53,312.272c3.088,15.1,6.976,30.221,11.557,44.952,4.529,14.552,9.836,29.052,15.776,43.1A470.418,470.418,0,0,0,286.484,649.943c14.045,5.94,28.545,11.247,43.1,15.776,14.708,4.576,29.832,8.465,44.952,11.557a469.933,469.933,0,0,0,46.574,7.107,475.92,475.92,0,0,0,95.919,0,469.932,469.932,0,0,0,46.574-7.107c15.118-3.092,30.242-6.981,44.952-11.557,14.552-4.529,29.052-9.836,43.1-15.776A468.756,468.756,0,0,0,731.328,606.7,470.407,470.407,0,0,0,901.274,400.321c5.94-14.045,11.247-28.545,15.776-43.1,4.576-14.708,8.465-29.832,11.559-44.952,3.131-15.308,5.522-30.977,7.107-46.574a475.715,475.715,0,0,0-1.131-105.988A465.882,465.882,0,0,0,884.643,0Z" transform="translate(1983.203 1083.002) rotate(180)" fill="#ccf6e8"/> <g transform="translate(1404.03 653.472)"> <g transform="translate(129.886 169.851)"> <path d="M1151.382,998.5h9.2V946.017c0-7.562,5.21-13.715,11.616-13.715h14.472c6.406,0,11.616,6.153,11.616,13.715V998.5h9.2V946.017c0-12.634-9.338-22.913-20.817-22.913H1172.2c-11.479,0-20.817,10.279-20.817,22.913Z" transform="translate(-1151.382 -923.104)" fill="#1e1d1f"/> </g> <g transform="translate(0)"> <g transform="translate(137.913 312.489)"> <path d="M1203.689,1197.718l-34.307-14.056v19.963l38.226,2.446V1202.3A4.643,4.643,0,0,0,1203.689,1197.718Z" transform="translate(-1169.381 -1183.662)" fill="#2f2d31"/> <circle cx="8.556" cy="8.556" r="8.556" transform="translate(35.526 44.17) rotate(-135)" fill="#2f2d31"/> <rect width="5.4" height="5.05" transform="translate(32.826 20.919)" fill="#2f2d31"/> </g> <path d="M1255.7,1013.979v11a9.856,9.856,0,0,1-9.591,10.1h-149.2a9.837,9.837,0,0,1-9.568-10.1v-11a9.815,9.815,0,0,1,9.568-10.071h149.2A9.834,9.834,0,0,1,1255.7,1013.979Z" transform="translate(-1034.647 -789.822)" fill="#1e1d1f"/> <path d="M1388.7,820.973c-12.71-65.717,4.913-127.369-11.193-190.254-2.735-10.594-10.638-17.885-19.674-17.885h-81.216c-5.7,0-9.762,6.871-7.9,13.453,18.157,64.406-.62,127.448,12.389,194.686,3.61,11.88,16.128,21.53,25.42,21.53H1380.5C1389.787,842.5,1392.287,832.853,1388.7,820.973Zm-35.845-28.085h-35.588c-4.464,0-10.488-5.455-12.219-12.22-6.259-38.209,2.777-74-5.96-110.587-.9-3.75,1.047-7.657,3.781-7.657h39.07c4.358,0,8.161,4.143,9.464,10.149,7.754,35.743-.727,70.778,5.383,108.1C1358.536,787.433,1357.318,792.888,1352.854,792.888Z" transform="translate(-1268.255 -612.834)" fill="#2f2d31"/> <g transform="translate(30.61 49.59)" opacity="0.55" style="mix-blend-mode: multiply; isolation: isolate;"> <path d="M1382,833.884h-35.588c-4.464,0-10.488-5.455-12.219-12.22-6.259-38.208,2.777-74-5.96-110.586-.9-3.75,1.047-7.658,3.781-7.658h39.07c4.358,0,8.16,4.143,9.463,10.149,7.754,35.743-.727,70.779,5.383,108.1C1387.686,828.43,1386.468,833.884,1382,833.884Z" transform="translate(-1328.016 -703.42)" fill="#2f2d31"/> </g> <path d="M1344.914,1013.979v11c0,5.573-3.168,10.1-7.072,10.1H1275.31c-3.9,0-7.055-4.522-7.055-10.1v-11c0-5.573,3.151-10.071,7.055-10.071h62.533C1341.746,1003.908,1344.914,1008.406,1344.914,1013.979Z" transform="translate(-1222.902 -789.822)" fill="#2f2d31"/> <path d="M0,0H77.612a0,0,0,0,1,0,0V0A11.611,11.611,0,0,1,66,11.611H11.611A11.611,11.611,0,0,1,0,0V0A0,0,0,0,1,0,0Z" transform="translate(102.497 245.253)" fill="#1e1d1f"/> <rect width="13.037" height="14.659" transform="translate(134.784 256.864)" fill="#2f2d31"/> <rect width="19.963" height="60.007" transform="translate(131.113 271.523)" fill="#1e1d1f"/> <g transform="translate(54.67 312.489)"> <path d="M1240,1197.718l73.443-14.056v19.963l-77.361,2.446V1202.3A4.643,4.643,0,0,1,1240,1197.718Z" transform="translate(-1228.493 -1183.662)" fill="#1e1d1f"/> <ellipse cx="8.556" cy="8.556" rx="8.556" ry="8.556" transform="translate(16.653 42.363) rotate(-166.717)" fill="#1e1d1f"/> <rect width="5.4" height="5.05" transform="translate(7.593 20.919)" fill="#1e1d1f"/> </g> <g transform="translate(92.095 312.489)"> <path d="M1243.127,1197.718l34.307-14.056v19.963l-38.225,2.446V1202.3A4.643,4.643,0,0,1,1243.127,1197.718Z" transform="translate(-1231.616 -1183.662)" fill="#2f2d31"/> <ellipse cx="8.556" cy="8.556" rx="8.556" ry="8.556" transform="translate(16.653 42.363) rotate(-166.717)" fill="#2f2d31"/> <rect width="5.4" height="5.05" transform="translate(7.593 20.919)" fill="#2f2d31"/> </g> <g transform="translate(139.623 312.489)"> <path d="M1168.212,1197.718l-73.442-14.056v19.963l77.36,2.446V1202.3A4.643,4.643,0,0,0,1168.212,1197.718Z" transform="translate(-1094.77 -1183.662)" fill="#1e1d1f"/> <circle cx="8.556" cy="8.556" r="8.556" transform="translate(74.66 44.17) rotate(-135)" fill="#1e1d1f"/> <rect width="5.4" height="5.05" transform="translate(71.961 20.919)" fill="#1e1d1f"/> </g> </g> <g transform="translate(53.086 169.851)"> <path d="M1291.674,998.5h9.2V946.017c0-7.562,5.21-13.715,11.616-13.715h14.473c6.4,0,11.615,6.153,11.615,13.715V998.5h9.2V946.017c0-12.634-9.338-22.913-20.816-22.913h-14.473c-11.479,0-20.817,10.279-20.817,22.913Z" transform="translate(-1291.674 -923.104)" fill="#1e1d1f"/> </g> </g> <g transform="translate(1453.758 429.485)"> <g transform="translate(3.253 411.684)"> <path d="M1324.869,1087.623l-42.052-104.13c-4.367-12.977,4.813-22.5,17.79-26.866h0c15.286-5.145,31.885,12.161,33.173,28.238,3.662,45.72,9.6,96.178,9.6,96.178Z" transform="translate(-1281.716 -955.703)" fill="#594c4a"/> </g> <g transform="translate(37.043 511.283)"><path d="M1310.361,1155.079l-1.935-17.438-25,9.137,9.237,22.751Z" transform="translate(-1283.425 -1137.641)" fill="#faa199"/></g> <g transform="translate(28.71 496.628)"><path d="M1286.96,1122.49l31.791-11.62,1.543,14.655-27.486,10.068Z" transform="translate(-1286.96 -1110.87)" fill="#8f7a75"/></g> <g transform="translate(37.282 527.079)"> <g transform="translate(1.442)"> <path d="M1266.563,1184.961l18.464-18.465,13.036,18.231-31.792,31.792a22.028,22.028,0,0,1-3.16-4.165A22.51,22.51,0,0,1,1266.563,1184.961Z" transform="translate(-1259.969 -1166.496)" fill="#7ebae0"/> </g> <g transform="translate(0 0.347)"> <g transform="translate(0 0)"><path d="M8.54,0h0a8.54,8.54,0,0,1,8.54,8.54v1.527a0,0,0,0,1,0,0H0a0,0,0,0,1,0,0V8.54A8.54,8.54,0,0,1,8.54,0Z" transform="translate(0 12.078) rotate(-45)" fill="#7ebae0"/></g> </g> </g> <g transform="translate(1.857 286.984)"> <path d="M1195.682,863.7c.206,7.507,1.2,13.9,3.027,18.2,1.061,2.523,2.4,4.325,4.037,5.2a24.311,24.311,0,0,0,11.616,2.925,27.194,27.194,0,0,0,23.705-14.561l67.749-125.663-50.6-21.883s-3.44,4.7-8.557,12.038c-2.986,4.274-6.539,9.443-10.318,15.107-11.224,16.806-24.447,37.937-30.656,52.817C1198.627,824.782,1195.2,846.994,1195.682,863.7Z" transform="translate(-1195.637 -727.911)" fill="#594c4a"/> </g> <g transform="translate(0 0)"> <g transform="translate(49.685 10.214)"> <path d="M1122.737,235.151c-21.576,20.553-44.773,108.182-29.039,135.828,5.6,9.84,60.8,22.549,80.67,16.117s37.378-54.583,34.914-95.587c-.643-10.686-4.484-34.836-9.715-44.176a49.836,49.836,0,0,0-35.446-24.415C1149.441,220.669,1133.491,224.907,1122.737,235.151Z" transform="translate(-1088.527 -222.331)" fill="#4f3e57"/> </g> <g transform="translate(8.471 134.638)"> <path d="M1229.871,544.961h0a15.831,15.831,0,0,0,22.3-2l56.271-67.362a15.831,15.831,0,0,0-2-22.3h0a15.832,15.832,0,0,0-22.3,2l-56.271,67.362A15.831,15.831,0,0,0,1229.871,544.961Z" transform="translate(-1224.189 -449.618)" fill="#ffe5e5"/> </g> <ellipse cx="21.132" cy="21.132" rx="21.132" ry="21.132" transform="translate(6.77 241.067) rotate(-99.217)" fill="#fff"/> <g transform="translate(8.281 206.014)"> <path d="M1338.986,673.009l13.823-10.2-9.815-70.757a14.791,14.791,0,0,0-15.256-12.028h0a14.806,14.806,0,0,0-13.5,18.839C1330.3,655.36,1338.986,673.009,1338.986,673.009Z" transform="translate(-1313.666 -580.002)" fill="#faa199"/> </g> <g transform="translate(45.286)"> <g transform="translate(0)"> <g transform="translate(23.582)"><ellipse cx="42.839" cy="42.839" rx="42.839" ry="42.839" transform="matrix(-0.246, -0.969, 0.969, -0.246, 21.091, 104.133)" fill="#4f3e57"/></g> <g transform="translate(87.685 29.642)"> <g transform="translate(0)"><path d="M1136.023,274.922l-11.391,18.372-14.463-35.473,20.792,8.12Z" transform="translate(-1110.17 -257.821)" fill="#382d3d"/></g> </g> <g transform="translate(20.228 67.558)"><path d="M1252.863,327.083l-23.876,18.541,28.266,11.109Z" transform="translate(-1228.987 -327.083)" fill="#382d3d"/></g> <g transform="translate(34.495 63.327)"> <path d="M1239.835,319.354h1.006a4.857,4.857,0,0,1,4.857,4.857v17.256h-4.555a6.164,6.164,0,0,1-6.164-6.164V324.211A4.857,4.857,0,0,1,1239.835,319.354Z" transform="translate(-1234.978 -319.354)" fill="#faa199"/> </g> <g transform="translate(10.649 127.802)"> <path d="M1110.686,492.79V604.015H1196.9a90.3,90.3,0,0,1-3.171-14.8c-2.142-15.405-2.585-40.9,10.411-67.131a85.357,85.357,0,0,0,9.155-36.165l-.069-33.377-17.468-10.223-10.916-5.19h-2.019l-36.392.031a111.105,111.105,0,0,0-14.53,12.687C1122,460.053,1110.686,475.49,1110.686,492.79Z" transform="translate(-1110.686 -437.13)" fill="#ffe5e5"/> </g> <g transform="translate(36.363 246.112)"><path d="M1148.515,654.733l56.184,17.043c-.01-.535-.01-1.071-.01-1.617l-55.731-16.909Z" transform="translate(-1148.515 -653.25)" fill="#d6c0c0"/></g> <g transform="translate(50.81 259.629)"><path d="M1148.177,677.942v1.565l41.922,8.726c-.041-.525-.062-1.05-.093-1.585Z" transform="translate(-1148.177 -677.942)" fill="#d6c0c0"/></g> <g transform="translate(9.543 194.858)"><ellipse cx="29.257" cy="10.36" rx="29.257" ry="10.36" transform="matrix(-0.992, -0.127, 0.127, -0.992, 58.041, 27.981)" fill="#d6c0c0"/></g> <g transform="translate(0 158.862)"> <path d="M1147.817,544.7l54.088,6.923a25.516,25.516,0,0,0,28.549-22.07h0A25.516,25.516,0,0,0,1208.385,501l-54.088-6.923a25.515,25.515,0,0,0-28.549,22.07h0A25.516,25.516,0,0,0,1147.817,544.7Z" transform="translate(-1125.539 -493.869)" fill="#ffe5e5"/> </g> <g transform="translate(46.364 83.428)"><path d="M1162.711,405.229s-1.154,7.6,13,7.6,25.4-7.6,25.4-7.6V356.073h-38.4Z" transform="translate(-1162.688 -356.073)" fill="#faa199"/></g> <g transform="translate(50.003 94.917)"><path d="M1197.473,407.8V377.06h-34.785S1168.837,404.726,1197.473,407.8Z" transform="translate(-1162.688 -377.06)" fill="#bd5f66"/></g> <path d="M1175.991,424.805l-32.226,18.325,15.566,19.483,27.019-26.142Z" transform="translate(-1091.203 -303.751)" fill="#fff"/> <path d="M1237.08,445.038l-6.2-16.017-9.327,9.473,1.822,19.763Z" transform="translate(-1184.517 -305.659)" fill="#fff"/> <g transform="translate(44.822 27.864)"> <path d="M1154.56,254.572h0a30.546,30.546,0,0,0-30.514,30.578l.029,27.459a30.546,30.546,0,0,0,30.578,30.514h0a30.546,30.546,0,0,0,30.514-30.578l-.029-27.459A30.545,30.545,0,0,0,1154.56,254.572Z" transform="translate(-1124.045 -254.572)" fill="#faa199"/> </g> <ellipse cx="3.268" cy="4.077" rx="3.268" ry="4.077" transform="translate(71.123 68.062)" fill="#332938"/> <ellipse cx="2.673" cy="3.941" rx="2.673" ry="3.941" transform="translate(95.266 68.489)" fill="#332938"/> <g transform="translate(44.8 37.821)"> <g transform="translate(0 0)"><rect width="6.352" height="33.991" transform="translate(0 0.007) rotate(-0.06)" fill="#382d3d"/></g> </g> </g> </g> <g transform="translate(89.441 294.683)"> <g transform="translate(0)"> <path d="M1176.557,829.165c-3.648,21.332-42.147,173.12-42.147,173.12l-25.64.015V741.975h52.719C1179.707,778.35,1181.486,800.3,1176.557,829.165Z" transform="translate(-1108.77 -741.975)" fill="#6f605b"/> </g> </g> <g transform="translate(109.867 299.023)"> <g transform="translate(0)"><path d="M1172.328,765.006h-20.875a12.114,12.114,0,0,1-12.114-12.114V749.9h27.837Z" transform="translate(-1139.339 -749.902)" fill="#8f7a75"/></g> </g> <g transform="translate(116.381 293.275)"> <g transform="translate(0)"> <path d="M1122.956,968.709c.226-.861,22.773-86.671,32.281-135.568,9.573-49.227-14.339-93.3-14.582-93.739l-1.8,1c.239.433,23.789,43.876,14.364,92.35-9.5,48.831-32.026,134.577-32.252,135.437Z" transform="translate(-1120.964 -739.403)" fill="#8f7a75"/> </g> </g> <g transform="translate(89.441 534.577)"><path d="M1206.3,1200.609l5.153-20.416h-30.8v20.431Z" transform="translate(-1180.655 -1180.192)" fill="#faa199"/></g> <g transform="translate(63.802 554.993)"> <path d="M1190.069,1239.6h45.238l1.421-5.18,4.624-16.93H1212.59a22.511,22.511,0,0,0-21.811,16.93A22.052,22.052,0,0,0,1190.069,1239.6Z" transform="translate(-1190.069 -1217.487)" fill="#7ebae0"/> </g> <g transform="translate(42.558 299.022)"> <g transform="translate(0)"> <path d="M1286.457,765.008h7.641a12.121,12.121,0,0,0,12.12-12.12V749.9h-9.443c-2.976,4.253-6.508,9.4-10.277,15.045C1286.488,764.967,1286.468,764.988,1286.457,765.008Z" transform="translate(-1286.457 -749.901)" fill="#6f605b"/> </g> </g> <g transform="translate(74.299 294.683)"> <g transform="translate(0)"><path d="M1250.321,795.575h1.734v-53.6h-15.142v40.192A13.408,13.408,0,0,0,1250.321,795.575Z" transform="translate(-1236.913 -741.975)" fill="#6f605b"/></g> </g> <g transform="translate(85.026 545.409)"> <g transform="translate(0 0)"><path d="M9.906,0h0a9.906,9.906,0,0,1,9.906,9.906v.161a0,0,0,0,1,0,0H0a0,0,0,0,1,0,0V9.906A9.906,9.906,0,0,1,9.906,0Z" fill="#7ebae0"/></g> </g> <g transform="translate(63.432 14.257)"> <path d="M1116.079,257.717a72,72,0,0,1,21.44-20.624c6.184-3.852,13.1-6.79,20.37-7.3,9.087-.636,18.227,2.65,25.427,8.231s12.232,13.47,16.081,21.726a47.913,47.913,0,0,1,3.305,9.841s-11.418-12.7-14.794-15.269-7.561-4.315-11.785-3.961c-4.544.381-8.534,3.09-12.088,5.946-10.995,8.836-20.036,19.867-30.745,29.047s-15.339,17.268-29.437,16.842C1106.715,295.574,1111.03,265.163,1116.079,257.717Z" transform="translate(-1103.853 -229.716)" fill="#4f3e57"/> </g> </g> <g transform="translate(109.711 58.199)"> <g transform="translate(21.344 20.892)"><path d="M1146.953,355.8a7.648,7.648,0,0,0,7.632-7.648l-2.957,0a4.688,4.688,0,0,1-4.678,4.687Z" transform="translate(-1146.95 -348.15)" fill="#bd5f66"/></g> <g transform="translate(0 0.027)"><path d="M1171.362,312.227l15.615,2.357h0a4.554,4.554,0,0,0-4.559-4.549l-6.5.007A7.191,7.191,0,0,0,1171.362,312.227Z" transform="translate(-1171.362 -310.035)" fill="#332938"/></g> <g transform="translate(30.29)"> <path d="M1137.337,312.165l-8.732,2.382h0c0-2.515,1.136-4.555,2.543-4.557l3.638,0C1136.194,309.984,1137.337,312.165,1137.337,312.165Z" transform="translate(-1128.605 -309.986)" fill="#332938"/> </g> </g> <g transform="translate(55.935 279.889)"><path d="M1140.634,714.95v14.8h86.212a90.309,90.309,0,0,1-3.171-14.8Z" transform="translate(-1140.634 -714.95)" fill="#594c4a"/></g> <g transform="translate(103.176 279.889)"><rect width="3.601" height="14.841" transform="translate(0)" fill="#6f605b"/></g> <g transform="translate(70.287 279.889)"><rect width="17.673" height="14.794" transform="translate(0)" fill="#6f605b"/></g> <g transform="translate(85.926 520.259)"><path d="M1174.076,1154.038h37.914l-3.6,14.318h-34.313Z" transform="translate(-1174.076 -1154.038)" fill="#8f7a75"/></g> <g transform="translate(136.636 142.032)"> <path d="M1099.894,581.311h0a15.833,15.833,0,0,0,13.187-18.094l-13.6-86.712a15.831,15.831,0,0,0-18.094-13.187h0a15.832,15.832,0,0,0-13.186,18.094l13.6,86.713A15.832,15.832,0,0,0,1099.894,581.311Z" transform="translate(-1068.002 -463.124)" fill="#ffe5e5"/> </g> <ellipse cx="21.132" cy="21.132" rx="21.132" ry="21.132" transform="translate(146.48 224.98)" fill="#fff"/> <g transform="translate(152.524 235.076)"> <path d="M1048.948,717.429l18.834-9.029-37.466-67.68a14.791,14.791,0,0,0-18.258-6.639h0a14.806,14.806,0,0,0-6.913,22.122C1038.115,704.818,1048.948,717.429,1048.948,717.429Z" transform="translate(-1002.588 -633.09)" fill="#faa199"/> </g> <g transform="translate(196.818 306.129)"> <path d="M14.772,0h7.247A16.865,16.865,0,0,1,38.884,16.865v0A14.772,14.772,0,0,1,24.112,31.637H0a0,0,0,0,1,0,0V14.772A14.772,14.772,0,0,1,14.772,0Z" transform="translate(31.275 0) rotate(81.324)" fill="#faa199"/> </g> <g transform="translate(29.562 284.66)"> <path d="M14.772,0h7.247A16.865,16.865,0,0,1,38.884,16.865v0A14.772,14.772,0,0,1,24.112,31.637H0a0,0,0,0,1,0,0V14.772A14.772,14.772,0,0,1,14.772,0Z" transform="translate(31.275 0) rotate(81.324)" fill="#faa199"/> </g> <g transform="translate(133.726 279.867)"><rect width="3.601" height="14.841" transform="translate(0)" fill="#6f605b"/></g> <g transform="translate(78.186 231.593)"><rect width="14.467" height="1.545" transform="translate(13.365 6.965) rotate(-157.491)" fill="#d6c0c0"/></g> <g transform="translate(67.97 324.545)"><path d="M1257.841,800.044l.263-1.529-21.547-1.991-.263,1.529Z" transform="translate(-1236.293 -796.523)" fill="#594c4a"/></g> <g transform="translate(71.317 316.427)"><path d="M1252.094,783.233l-.175-1.538-21.51,2.254.175,1.538Z" transform="translate(-1230.409 -781.696)" fill="#594c4a"/></g> <g transform="translate(76.852 160.412)"><rect width="1.544" height="28.184" transform="translate(0.592 12.239) rotate(-112.56)" fill="#d6c0c0"/></g> <g transform="translate(78.725 157.203)"><rect width="1.545" height="10.315" transform="translate(0.797 6.644) rotate(-121.052)" fill="#d6c0c0"/></g> <path d="M1246.935,828.136h-38.4l22.865,14.846Z" transform="translate(-1141.959 -486.286)" fill="#382d3d"/> <path d="M1144.555,376.068s5.36,6.816,10.652,6.816,8.512-6.816,8.512-6.816-3.076-6.816-8.369-6.816S1144.555,376.068,1144.555,376.068Z" transform="translate(-1023.719 -278.609)" fill="#bd5f66"/> <path d="M1153.283,380a3.626,3.626,0,0,0,5.88,0,3.627,3.627,0,0,0-5.88,0Z" transform="translate(-1023.94 -282.793)" fill="#fff"/> </g> <g transform="translate(1208.694 543.08)"> <g transform="translate(0 99.359)"> <g transform="translate(0 11.034)"> <g transform="translate(0)"> <g transform="translate(137.912 312.488)"> <path d="M1560.511,1197.718l-34.307-14.056v19.963l38.225,2.446V1202.3A4.643,4.643,0,0,0,1560.511,1197.718Z" transform="translate(-1526.204 -1183.662)" fill="#2f2d31"/> <circle cx="8.556" cy="8.556" r="8.556" transform="translate(35.526 44.17) rotate(-135)" fill="#2f2d31"/> <rect width="5.4" height="5.05" transform="translate(32.826 20.919)" fill="#2f2d31"/> </g> <path d="M1612.521,1013.979v11a9.856,9.856,0,0,1-9.591,10.1h-149.2a9.837,9.837,0,0,1-9.568-10.1v-11a9.815,9.815,0,0,1,9.568-10.071h149.2A9.834,9.834,0,0,1,1612.521,1013.979Z" transform="translate(-1391.469 -789.823)" fill="#1e1d1f"/> <path d="M1745.52,820.974c-12.71-65.717,4.913-127.37-11.193-190.255-2.734-10.594-10.638-17.885-19.674-17.885h-81.216c-5.7,0-9.762,6.87-7.9,13.453,18.157,64.406-.62,127.449,12.389,194.687,3.61,11.879,16.128,21.529,25.42,21.529h73.974C1746.609,842.5,1749.108,832.854,1745.52,820.974Zm-35.845-28.086h-35.588c-4.464,0-10.488-5.455-12.219-12.22-6.259-38.208,2.777-74-5.96-110.586-.9-3.75,1.047-7.658,3.781-7.658h39.07c4.358,0,8.161,4.144,9.463,10.149,7.754,35.744-.727,70.779,5.383,108.1C1715.358,787.434,1714.14,792.888,1709.675,792.888Z" transform="translate(-1625.077 -612.835)" fill="#2f2d31"/> <g transform="translate(30.61 49.589)" opacity="0.55" style="mix-blend-mode: multiply; isolation: isolate;"> <path d="M1738.825,833.884h-35.588c-4.464,0-10.488-5.455-12.219-12.22-6.259-38.208,2.777-74-5.96-110.586-.9-3.75,1.047-7.658,3.781-7.658h39.07c4.358,0,8.16,4.143,9.463,10.149,7.754,35.744-.727,70.779,5.383,108.1C1744.508,828.43,1743.29,833.884,1738.825,833.884Z" transform="translate(-1684.838 -703.42)" fill="#2f2d31"/> </g> <path d="M1701.736,1013.979v11c0,5.573-3.168,10.1-7.071,10.1h-62.533c-3.9,0-7.055-4.522-7.055-10.1v-11c0-5.573,3.151-10.071,7.055-10.071h62.533C1698.568,1003.908,1701.736,1008.406,1701.736,1013.979Z" transform="translate(-1579.724 -789.823)" fill="#2f2d31"/> <path d="M0,0H77.612a0,0,0,0,1,0,0V0A11.611,11.611,0,0,1,66,11.611H11.611A11.611,11.611,0,0,1,0,0V0A0,0,0,0,1,0,0Z" transform="translate(102.497 245.252)" fill="#1e1d1f"/> <rect width="13.037" height="14.659" transform="translate(134.784 256.864)" fill="#2f2d31"/> <rect width="19.963" height="60.007" transform="translate(131.113 271.523)" fill="#1e1d1f"/> <g transform="translate(54.669 312.488)"> <path d="M1596.825,1197.718l73.443-14.056v19.963l-77.361,2.446V1202.3A4.644,4.644,0,0,1,1596.825,1197.718Z" transform="translate(-1585.315 -1183.662)" fill="#1e1d1f"/> <ellipse cx="8.556" cy="8.556" rx="8.556" ry="8.556" transform="translate(16.653 42.363) rotate(-166.717)" fill="#1e1d1f"/> <rect width="5.4" height="5.05" transform="translate(7.593 20.919)" fill="#1e1d1f"/> </g> <g transform="translate(92.094 312.488)"> <path d="M1599.949,1197.718l34.308-14.056v19.963l-38.225,2.446V1202.3A4.643,4.643,0,0,1,1599.949,1197.718Z" transform="translate(-1588.439 -1183.662)" fill="#2f2d31"/> <ellipse cx="8.556" cy="8.556" rx="8.556" ry="8.556" transform="translate(16.653 42.363) rotate(-166.717)" fill="#2f2d31"/> <rect width="5.4" height="5.05" transform="translate(7.593 20.919)" fill="#2f2d31"/> </g> <g transform="translate(139.622 312.488)"> <path d="M1525.034,1197.718l-73.442-14.056v19.963l77.36,2.446V1202.3A4.644,4.644,0,0,0,1525.034,1197.718Z" transform="translate(-1451.592 -1183.662)" fill="#1e1d1f"/> <circle cx="8.556" cy="8.556" r="8.556" transform="translate(74.66 44.17) rotate(-135)" fill="#1e1d1f"/> <rect width="5.4" height="5.05" transform="translate(71.961 20.919)" fill="#1e1d1f"/> </g> </g> </g> <g transform="translate(124.278 101.955)"><path d="M1450.48,790.168c-.784,7.194,8.167,13.516,19.41,14.089l71.448,7.033,2.434-22.337-92.066-10.032Z" transform="translate(-1450.432 -778.921)" fill="#3e4769"/></g> <path d="M0,0H1.335A22.347,22.347,0,0,1,23.682,22.347v5.165a0,0,0,0,1,0,0H22.347A22.347,22.347,0,0,1,0,5.165V0A0,0,0,0,1,0,0Z" transform="translate(228.204 122.099) rotate(151.031)" fill="#f59f9e"/> <g transform="translate(164.525 21.111)"><path d="M1536.717,631.242l-3.058,88.535,7.532-1.719S1540.746,665.4,1536.717,631.242Z" transform="translate(-1533.659 -631.242)" fill="#3e4769"/></g> <g transform="translate(57.08 4.99)"><path d="M1652.335,617.914,1618.2,601.793H1577.28l-35.448,16.121,3.113,187.382h100.918Z" transform="translate(-1541.832 -601.793)" fill="#48547a"/></g> <g transform="translate(74.253)"> <path d="M1616.209,695.009l25.952-50.294-13.66-3.9,14.882-9.471-26.978-38.664-2.161,1.507L1639.65,630.6l-17.506,11.139,16.2,4.629-22.967,44.506-47.246-39.72,21.382-8.46-25.891-13.253,16.793-30.216-2.3-1.279L1560,630.54l23.136,11.843-20.075,7.944Z" transform="translate(-1559.998 -592.678)" fill="#2b2c40"/> </g> <g transform="translate(127.806 99.244)"><path d="M1590.735,877.313l10.807-7.11,1.543-87.415-10.718-8.819L1590.693,776l9.735,8.01-1.495,84.754-9.646,6.344Z" transform="translate(-1589.286 -773.969)" fill="#2b2c40"/></g> <g transform="translate(90.586 5.888)"><path d="M1600.2,603.931l25.689,59.566,13.308,31.226,1.9-29.426,4.144-61.366-18.26-.5h-.875Z" transform="translate(-1600.202 -603.434)" fill="#fff"/></g> <g transform="translate(107.034 5.315)"> <g transform="translate(0)"><path d="M1623.061,627.869l10.348-11.575-13.225-13.905-9.791,16.5Z" transform="translate(-1610.393 -602.388)" fill="#2b2c40"/></g> <g transform="translate(6.684 6.343)"><path d="M1607.772,614.85l.69,14.5,1.868,38.915,13.308,31.226,1.9-29.426-7.47-41.792-2.557-14.3Z" transform="translate(-1607.772 -613.975)" fill="#2b2c40"/></g> </g> <g transform="translate(94.178 191.061)"><rect width="107.606" height="41.134" fill="#343d59"/></g> <g transform="translate(59.846 191.061)"><path d="M0,0H71.959a0,0,0,0,1,0,0V41.134a0,0,0,0,1,0,0H35.889A35.889,35.889,0,0,1,0,5.245V0A0,0,0,0,1,0,0Z" fill="#3e4769"/></g> <g transform="translate(109.932 191.061)"> <path d="M1610.188,1103.968l-22.326-7.9L1565.487,961.82a20.19,20.19,0,0,1,20.19-20.128h1.683c12.623,0,18.558,10.733,20.972,23.961Z" transform="translate(-1565.487 -941.692)" fill="#3e4769"/> </g> <g transform="translate(141.382 207.205)"><rect width="139.455" height="2.218" transform="matrix(-0.049, -0.999, 0.999, -0.049, 6.868, 139.395)" fill="#2b2c40"/></g> <g transform="translate(181.591 191.061)"> <g transform="translate(0)"><path d="M1474.047,1096.067h-23.825l-27.047-131.6a20.19,20.19,0,0,1,20.024-22.775h0c11.255,0,20.491,10.653,21.415,20.568Z" transform="translate(-1423.005 -941.692)" fill="#343d59"/></g> </g> <g transform="translate(213.961 207.171)"><rect width="139.73" height="2.218" transform="translate(11.139 139.462) rotate(-94.573)" fill="#2b2c40"/></g> <g transform="translate(208.874 345.435)"> <g transform="translate(0)"><path d="M1412.492,1223.69h-23.863l3.6,18.714h38.972A18.714,18.714,0,0,0,1412.492,1223.69Z" transform="translate(-1388.629 -1223.69)" fill="#585858"/></g> </g> <g transform="translate(132.307 345.435)"><path d="M1552.359,1223.69H1528.5l3.6,18.714h38.972A18.714,18.714,0,0,0,1552.359,1223.69Z" transform="translate(-1528.496 -1223.69)" fill="#585858"/></g> <g transform="translate(125.908 120.745)"> <g transform="translate(0)"><path d="M1604.818,816.843a3.6,3.6,0,1,0,3.6-3.6A3.6,3.6,0,0,0,1604.818,816.843Z" transform="translate(-1604.818 -813.245)" fill="#2b2c40"/></g> </g> <g transform="translate(124.934 157.151)"> <g transform="translate(0)"><ellipse cx="3.597" cy="3.597" rx="3.597" ry="3.597" fill="#2b2c40"/></g> </g> <g transform="translate(48.007 20.629)"> <path d="M1715.5,630.369h0c-17.634,26.295-5.385,94.592-5.385,94.592l25.579-3.616-5.232-61.56C1729.285,647.3,1722.512,629.966,1715.5,630.369Z" transform="translate(-1705.971 -630.362)" fill="#53618c"/> </g> <g transform="translate(122.184 109.646)"><path d="M1549.6,809.7l39.541,2.411,1.606-14.738-39.323-4.4Z" transform="translate(-1549.599 -792.971)" fill="#f59f9e"/></g> <g transform="translate(181.259 127.274)"> <g transform="translate(0)"><path d="M1497.8,828.787l10.428,6.768-6.843-10.383-1.612.249-.186,1.565-1.551.188Z" transform="translate(-1497.801 -825.172)" fill="#ffe7ca"/></g> <g transform="translate(7.115 7.077)"><path d="M1501.113,841.4l-3.313-2.15.256-.893.878-.263Z" transform="translate(-1497.8 -838.099)" fill="#414042"/></g> </g> <path d="M23.588,0H25a0,0,0,0,1,0,0V5.451A23.588,23.588,0,0,1,1.409,29.039H0a0,0,0,0,1,0,0V23.588A23.588,23.588,0,0,1,23.588,0Z" transform="matrix(0.875, 0.484, -0.484, 0.875, 169.818, 97.694)" fill="#f59f9e"/> <g transform="translate(52.149 101.955)"><path d="M1582.239,790.168c-.784,7.194,8.166,13.516,19.41,14.089l71.448,7.033,2.434-22.337-92.067-10.032Z" transform="translate(-1582.191 -778.921)" fill="#53618c"/></g> <g transform="translate(53.085 180.885)"> <path d="M1648.5,998.5h9.2V946.017c0-7.562,5.21-13.715,11.616-13.715h14.473c6.4,0,11.615,6.153,11.615,13.715V998.5h9.2V946.017c0-12.634-9.339-22.913-20.816-22.913h-14.473c-11.478,0-20.817,10.279-20.817,22.913Z" transform="translate(-1648.496 -923.104)" fill="#1e1d1f"/> </g> </g> <g transform="translate(77.964)"> <g transform="translate(12.623 71.62)"><path d="M1645.244,576.132s-5.915,5.273-22.522,5.273-22.521-5.273-22.521-5.273V542.008h45.043Z" transform="translate(-1600.201 -542.008)" fill="#faa199"/></g> <path d="M1600.2,558.949h30v20.625h-9.376a20.625,20.625,0,0,1-20.625-20.625Z" transform="translate(-1572.537 -478.055)" fill="#bd5f66"/> <path d="M1560.648,444.092l14.4,1.22-9.99,13.8Z" transform="translate(-1495.724 -426.074)" fill="#624e6b"/> <g transform="translate(11.28 5.527)"> <path d="M1575.761,450.5v12.6h1.352v33.749a55.566,55.566,0,0,0,38.491,11.033,22.2,22.2,0,0,0,19.922-22.1V450.5a29.232,29.232,0,0,0-8.545-20.661c-5.283-5.3-2.569-8.563-10.627-8.563h-1.334C1598.883,421.275,1575.761,434.364,1575.761,450.5Z" transform="translate(-1575.761 -421.275)" fill="#faa199"/> </g> <g transform="translate(16.936 51.631)"> <path d="M1607.851,525.525s-14.1,3.016-22.276-7.224c-2.954-3.7-4.328-10.684-4.328-10.684h-5.486v24.8s5.174,17.454,33.288,17.454c8.116,0,13.205-1.493,16.318-3.073a8.143,8.143,0,0,0,4.5-7.249V505.493s-.117,16-3.565,19.894Z" transform="translate(-1575.761 -505.493)" fill="#e09088"/> </g> <g transform="translate(11.281 5.528)"> <path d="M1637.638,438.526s-16.141.01-26.381.02a8.157,8.157,0,0,0-3.593.824,8.239,8.239,0,0,0-4.644,7.413v.088a6.99,6.99,0,0,1-3.858,6.725,14.5,14.5,0,0,0-7.589,12.95v3.083h-9.788V463.1h-1.355V450.5a28.039,28.039,0,0,1,.393-4.752,29.153,29.153,0,0,1,9.445-17.123c5.164-4.575,21.982-7.353,29.423-7.353h1.336c8.05,0,5.341,3.259,10.623,8.561A29.367,29.367,0,0,1,1637.638,438.526Z" transform="translate(-1580.43 -421.276)" fill="#624e6b"/> </g> <path d="M1564.164,424.067s17.012-14.94,35.441-12.649,20.831,16.036,20.831,16.036l-8.909,6.506Z" transform="translate(-1543.043 -411.179)" fill="#624e6b"/> <path d="M1677.538,439.867l-3.868,5.272L1656.3,468.82l-1.355-2.632-5.792-11.241-5.489-10.662s8.836-11.291,18.487-10.309c.913.088,1.787.216,2.632.373A29.184,29.184,0,0,1,1677.538,439.867Z" transform="translate(-1643.667 -421.469)" fill="#624e6b"/> <path d="M1667.482,453.253l.31.343-.507.226a8.239,8.239,0,0,0-4.644,7.413v.088a6.99,6.99,0,0,1-3.858,6.725,14.5,14.5,0,0,0-7.589,12.95v3.083h-5.478l-4.31-4.124v-2.4h-1.355v-2.632l-5.792-11.242c1.826-1.089,3.947-2.307,6.185-3.475a61.871,61.871,0,0,1,10.908-4.644,62.793,62.793,0,0,1,7.422-1.689A38.535,38.535,0,0,1,1667.482,453.253Z" transform="translate(-1628.771 -430.201)" fill="#d18175" opacity="0.61"/> <g transform="translate(4.075 44.487)"> <path d="M1680.983,492.444h0a6.4,6.4,0,0,0-6.4,6.4v13.224a6.4,6.4,0,0,0,6.4,6.4h6.473V498.917A6.472,6.472,0,0,0,1680.983,492.444Z" transform="translate(-1674.585 -492.444)" fill="#faa199"/> </g> <g transform="translate(57.601 57.912)"> <g transform="translate(0)"><path d="M1595.489,516.968l.053,1.688a5.774,5.774,0,0,1-5.773,5.952V521.89a3.052,3.052,0,0,0,3.055-3.151l-.055-1.771Z" transform="translate(-1589.769 -516.968)" fill="#bd5f66"/></g> </g> <ellipse cx="3.268" cy="4.077" rx="3.268" ry="4.077" transform="translate(41.018 46.971)" fill="#332938"/> <ellipse cx="2.673" cy="3.941" rx="2.673" ry="3.941" transform="translate(63.144 46.995)" fill="#332938"/> <path d="M1621.153,487.952a13.852,13.852,0,0,1,4.983.186,2.352,2.352,0,0,0,2.423-1.688,2.583,2.583,0,0,0-1.459-2.747,17.311,17.311,0,0,0-6.431-.265,19.121,19.121,0,0,0-6.224,2.137C1613.6,486.075,1618.431,488.359,1621.153,487.952Z" transform="translate(-1578.686 -443.799)" fill="#624e6b"/> <path d="M1577.648,488.109a1.507,1.507,0,0,0,.951-.2,3.951,3.951,0,0,1,2.183-.464c1.112.145,4.843-.986,4.2-1.643a6.316,6.316,0,0,0-7.841-1.025,1.911,1.911,0,0,0-.7,2.415A1.561,1.561,0,0,0,1577.648,488.109Z" transform="translate(-1514.292 -444.074)" fill="#624e6b"/> <path d="M11.785,0h4.633A11.785,11.785,0,0,1,28.2,11.785v0a0,0,0,0,1,0,0H0a0,0,0,0,1,0,0v0A11.785,11.785,0,0,1,11.785,0Z" transform="translate(41.743 67.037)" fill="#e09088"/> <path d="M1627.544,436.114s14.44,7.328,15.576,11.174l2.815-2.03S1641.709,440.526,1627.544,436.114Z" transform="translate(-1603.237 -422.464)" fill="#faa199"/> <path d="M0,0H18.088a0,0,0,0,1,0,0V5.061a9.044,9.044,0,0,1-9.044,9.044h0A9.044,9.044,0,0,1,0,5.061V0A0,0,0,0,1,0,0Z" transform="translate(47.138 72.903)" fill="#faa199"/> <rect width="4.95" height="5.39" transform="translate(54.26 83.736)" fill="#e09088"/> <path d="M1592.943,561.051a57.565,57.565,0,0,0,6.269.736,28.115,28.115,0,0,0,4.964-.736S1599.253,568.66,1592.943,561.051Z" transform="translate(-1542.537 -479.006)" fill="#bd5f66"/> <path d="M1586.085,544.4c0,4.247,4.087,7.69,9.127,7.69s9.128-3.443,9.128-7.69Z" transform="translate(-1538.947 -471.47)" fill="#fff"/> </g> </g> <g transform="translate(1438.036 704.284)"> <g transform="translate(0 15.851)"> <ellipse cx="15.127" cy="15.127" rx="15.127" ry="15.127" fill="#ada92c"/> <rect width="27.107" height="19.189" transform="translate(1.573 27.288)" fill="#fff"/> </g> <g transform="translate(37.629)"> <rect width="40.055" height="62.199" fill="#dd6843"/> <rect width="9.56" height="62.199" transform="translate(0)" fill="#f78460"/> </g> <g transform="translate(53.967)"> <rect width="40.055" height="62.199" fill="#ffd085"/> <rect width="9.56" height="62.199" transform="translate(0)" fill="#feedc5"/> </g> <g transform="translate(70.486 11.617)"> <rect width="40.055" height="50.582" fill="#7ebae0"/> <rect width="9.56" height="50.582" transform="translate(0)" fill="#a2d9fd"/> </g> </g> <g transform="translate(1217.605 736.828)"> <path d="M1788.269,769.1h23.152l-3.644,27.085h-15.865Z" transform="translate(-1787.657 -766.91)" fill="#804b2d"/> <rect width="24.978" height="2.125" transform="translate(0)" fill="#fbb766"/> <path d="M1791.866,796.012h18.293l1.014-7.54h-20.282Z" transform="translate(-1788.844 -775.678)" fill="#fbb766"/> <ellipse cx="5.784" cy="7.625" rx="5.784" ry="7.625" transform="translate(9.115 9.378)" fill="#fbb766"/> </g> <g transform="translate(1186.669 766.1)"> <g transform="translate(0)"> <rect width="539.593" height="20.261" transform="translate(0)" fill="#e6864b"/> <rect width="539.593" height="18.009" transform="translate(0 20.261)" fill="#a55b2d"/> <rect width="220.226" height="18.009" transform="translate(539.593 20.261) rotate(90)" fill="#99918d"/> <rect width="220.226" height="18.009" transform="translate(18.009 20.261) rotate(90)" fill="#a55b2d"/> </g> <g transform="translate(112.626)"> <rect width="539.593" height="20.261" transform="translate(0)" fill="#fbb77b"/> <rect width="539.593" height="18.009" transform="translate(0 20.261)" fill="#e6864b"/> <rect width="220.226" height="18.009" transform="translate(539.593 20.261) rotate(90)" fill="#e6864b"/> <rect width="220.226" height="18.009" transform="translate(18.009 20.261) rotate(90)" fill="#e6864b"/> </g> </g> <g transform="translate(996 735.064)"> <path d="M2083.805,771.852a25.167,25.167,0,0,0-20.129-9.973h-62.082a9.477,9.477,0,0,0-8.279,14.094c5.542,9.942,13.091,24.006,19.862,38.395,12.615,26.809,12.164,74.563,12.164,74.563H2113.7s3.3-37.244-10.361-79.972A127.833,127.833,0,0,0,2083.805,771.852Z" transform="translate(-1980.265 -761.879)" fill="#2f2d31"/> <rect width="10.234" height="116.238" transform="translate(104.306 155.285)" fill="#1e1d1f"/> <path d="M1999.233,993.966h-125v2.621a25.612,25.612,0,0,0,25.612,25.613h127.623A28.234,28.234,0,0,0,1999.233,993.966Z" transform="translate(-1829.154 -866.914)" fill="#2f2d31"/> <path d="M2105.427,771.852a25.166,25.166,0,0,0-20.129-9.973h-62.082a9.477,9.477,0,0,0-8.279,14.094c5.542,9.942,13.091,24.006,19.862,38.395,12.615,26.809,12.164,74.563,12.164,74.563h88.359s3.3-37.244-10.362-79.972A127.839,127.839,0,0,0,2105.427,771.852Z" transform="translate(-2013.722 -761.879)" fill="#1e1d1f"/> <path d="M2020.853,993.966h-125v2.621a25.612,25.612,0,0,0,25.612,25.613h127.623A28.234,28.234,0,0,0,2020.853,993.966Z" transform="translate(-1862.611 -866.914)" fill="#1e1d1f"/> <rect width="8.56" height="35.142" transform="translate(155.961 110.382)" fill="#e6864b"/> <path d="M1887.4,941.156a10.813,10.813,0,0,0,10.813,10.813h28.608a10.813,10.813,0,0,0,10.813-10.813V938H1887.4Z" transform="translate(-1746.53 -841.587)" fill="#2f2d31"/> <path d="M1993.56,1161.779h11.065l33.957-116.238h-11.064Z" transform="translate(-1905.594 -890.255)" fill="#000"/> <path d="M2098.967,1161.779h11.065l33.957-116.238h-11.064Z" transform="translate(-2068.705 -890.255)" fill="#1e1d1f"/> <rect width="10.234" height="116.238" transform="translate(188.078 155.285)" fill="#000"/> </g> <g transform="translate(1244.374 692.734)"> <g transform="translate(17.102 70.517)"> <path d="M1674.339,813.37h-88.812a1.425,1.425,0,0,0-1.424,1.424h0a1.424,1.424,0,0,0,1.424,1.424h88.812a1.424,1.424,0,0,0,1.424-1.424h0A1.424,1.424,0,0,0,1674.339,813.37Z" transform="translate(-1584.102 -813.37)" fill="#fff"/> <path d="M1552.344,813.37h-42.367a1.424,1.424,0,0,0-1.425,1.424h0a1.424,1.424,0,0,0,1.425,1.424h42.367a1.424,1.424,0,0,0,1.424-1.424h0A1.424,1.424,0,0,0,1552.344,813.37Z" transform="translate(-1420.75 -813.37)" fill="url(#a)"/> </g> <g transform="translate(0)"> <path d="M1672.641,684.555h-86.213a2.183,2.183,0,0,0-2.234,2.8l15.156,64.918a3.8,3.8,0,0,0,3.542,2.8H1689.1a2.183,2.183,0,0,0,2.234-2.8l-15.155-64.918A3.806,3.806,0,0,0,1672.641,684.555Z" transform="translate(-1582.659 -684.555)" fill="#39373b"/> <path d="M1675.312,684.555H1589.1a2.182,2.182,0,0,0-2.234,2.8l15.155,64.918a3.8,3.8,0,0,0,3.542,2.8h86.213a2.183,2.183,0,0,0,2.234-2.8l-15.155-64.918A3.806,3.806,0,0,0,1675.312,684.555Z" transform="translate(-1586.792 -684.555)" fill="url(#b)"/> </g> </g> <g transform="translate(1558.757 612.236)"> <path d="M1010.489,645.984h89.092l-42.647-108.476H967.842Z" transform="translate(-967.842 -537.508)" fill="#fff"/> <g transform="translate(21.262 25.724)"> <path d="M1064.969,586.155h56.1a.829.829,0,0,0,.771-1.131h0a.829.829,0,0,0-.771-.526h-56.1a.829.829,0,0,0-.771,1.132h0A.828.828,0,0,0,1064.969,586.155Z" transform="translate(-1064.141 -584.498)" fill="#c7ced4"/> <path d="M1045.017,594.1h65.315a.829.829,0,0,0,.771-1.132h0a.829.829,0,0,0-.771-.525h-65.315a.829.829,0,0,0-.771,1.132h0A.829.829,0,0,0,1045.017,594.1Z" transform="translate(-1042.478 -588.094)" fill="#c7ced4"/> <path d="M1041.894,602.044h65.316a.828.828,0,0,0,.771-1.132h0a.828.828,0,0,0-.771-.526h-65.316a.828.828,0,0,0-.771,1.132h0A.828.828,0,0,0,1041.894,602.044Z" transform="translate(-1037.645 -591.689)" fill="#c7ced4"/> <path d="M1038.771,609.988h35.263a.828.828,0,0,0,.771-1.131h0a.827.827,0,0,0-.771-.525h-35.263a.828.828,0,0,0-.771,1.132h0A.828.828,0,0,0,1038.771,609.988Z" transform="translate(-1002.76 -595.285)" fill="#c7ced4"/> <path d="M1052.477,617.933h56.1a.828.828,0,0,0,.771-1.132h0a.828.828,0,0,0-.771-.526h-56.1a.829.829,0,0,0-.771,1.132h0A.83.83,0,0,0,1052.477,617.933Z" transform="translate(-1044.809 -598.88)" fill="#c7ced4"/> <path d="M1032.524,625.877h65.316a.828.828,0,0,0,.771-1.131h0a.828.828,0,0,0-.771-.525h-65.316a.828.828,0,0,0-.771,1.132h0A.828.828,0,0,0,1032.524,625.877Z" transform="translate(-1023.146 -602.475)" fill="#c7ced4"/> <path d="M1029.4,633.821h65.316a.828.828,0,0,0,.771-1.131h0a.828.828,0,0,0-.771-.526H1029.4a.828.828,0,0,0-.771,1.132h0A.828.828,0,0,0,1029.4,633.821Z" transform="translate(-1018.313 -606.071)" fill="#c7ced4"/> <path d="M1026.276,641.766h35.263a.829.829,0,0,0,.771-1.132h0a.829.829,0,0,0-.771-.526h-35.263a.829.829,0,0,0-.771,1.132h0A.828.828,0,0,0,1026.276,641.766Z" transform="translate(-983.427 -609.666)" fill="#c7ced4"/> <path d="M1039.984,649.711h56.1a.828.828,0,0,0,.771-1.131h0a.828.828,0,0,0-.771-.525h-56.1a.828.828,0,0,0-.771,1.132h0A.828.828,0,0,0,1039.984,649.711Z" transform="translate(-1025.476 -613.261)" fill="#c7ced4"/> <path d="M1020.03,657.655h65.316a.828.828,0,0,0,.771-1.132h0a.828.828,0,0,0-.771-.526H1020.03a.828.828,0,0,0-.771,1.132h0A.828.828,0,0,0,1020.03,657.655Z" transform="translate(-1003.813 -616.857)" fill="#c7ced4"/> <path d="M1016.907,665.6h35.263a.829.829,0,0,0,.771-1.132h0a.829.829,0,0,0-.771-.525h-35.263a.828.828,0,0,0-.771,1.132h0A.829.829,0,0,0,1016.907,665.6Z" transform="translate(-968.928 -620.452)" fill="#c7ced4"/> <path d="M1030.614,673.544h56.1a.828.828,0,0,0,.771-1.132h0a.828.828,0,0,0-.771-.526h-56.1a.829.829,0,0,0-.771,1.132h0A.829.829,0,0,0,1030.614,673.544Z" transform="translate(-1010.977 -624.048)" fill="#c7ced4"/> <path d="M1010.661,681.488h65.316a.828.828,0,0,0,.771-1.132h0a.828.828,0,0,0-.771-.525h-65.316a.828.828,0,0,0-.771,1.132h0A.828.828,0,0,0,1010.661,681.488Z" transform="translate(-989.314 -627.643)" fill="#c7ced4"/> <path d="M1003.223,700.405h65.316a.828.828,0,0,0,.771-1.131h0a.828.828,0,0,0-.771-.526h-65.316a.828.828,0,0,0-.771,1.132h0A.828.828,0,0,0,1003.223,700.405Z" transform="translate(-977.806 -636.204)" fill="#c7ced4"/> <path d="M998.523,712.361H1038.5a.828.828,0,0,0,.771-1.131h0a.829.829,0,0,0-.771-.526H998.523a.828.828,0,0,0-.771,1.132h0A.827.827,0,0,0,998.523,712.361Z" transform="translate(-945.198 -641.615)" fill="#c7ced4"/> </g> <g transform="translate(92.637 87.438)" opacity="0.74" style="mix-blend-mode: multiply; isolation: isolate;"> <g transform="translate(0)"> <path d="M1014.969,714c5.439,0,8.385-3.761,6.568-8.383s-7.72-8.384-13.16-8.384-8.386,3.761-6.568,8.384S1009.53,714,1014.969,714Zm-6.253-15.907c4.881,0,10.179,3.375,11.81,7.524s-1.013,7.523-5.894,7.523-10.179-3.375-11.81-7.523S1003.834,698.091,1008.716,698.091Z" transform="translate(-1001.272 -697.231)" fill="#83aad0"/> </g> <g transform="translate(3.522 2.839)"> <path d="M1009.007,708.318c1.11,2.825,4.705,5.115,8.029,5.115s5.117-2.29,4.007-5.115-4.7-5.115-8.028-5.115S1007.9,705.493,1009.007,708.318Z" transform="translate(-1008.146 -702.773)" fill="#a2c4e0"/> <path d="M1016.765,713.506c3.6,0,5.546-2.488,4.343-5.544s-5.106-5.545-8.7-5.545-5.546,2.488-4.344,5.545S1013.168,713.506,1016.765,713.506Zm-4.022-10.229c3.039,0,6.338,2.1,7.354,4.685s-.631,4.684-3.67,4.684-6.338-2.1-7.354-4.684S1009.7,703.277,1012.743,703.277Z" transform="translate(-1007.706 -702.417)" fill="#83aad0"/> </g> </g> </g> <g transform="translate(1588.289 517.016)"> <g transform="translate(0 0)"> <g transform="translate(154.366)"> <rect width="44.515" height="73.194" transform="translate(28.542 68.991)" fill="#faa199"/> <path d="M783.12,422.695l32.951.719L814.785,482.4c-.314,14.37-12.8,25.753-27.9,25.424l-8.281-.181c-12.1-.264-21.712-9.82-21.46-21.343l.888-40.745C758.316,432.634,769.548,422.4,783.12,422.695Z" transform="translate(-752.885 -390.324)" fill="#faa199"/> <path d="M797.239,469.3l-1.029,35.649-32.245-.862c-15-.4-26.965-12.2-26.73-26.347l.6-36.332Z" transform="translate(-723.154 -398.794)" fill="#53414b"/> <path d="M781.384,363.568l23.145,17.173a19.882,19.882,0,0,1,4.113,27.816l-2.733,3.681-25.2-18.707a19.884,19.884,0,0,1-4.113-27.816Z" transform="translate(-757.881 -363.568)" fill="#53414b"/> <path d="M780.377,388.808l36.234,10.43A19.34,19.34,0,0,1,829.3,423.466l-.326,1.045-38.288-11.964c-10.2-3.185-13.824-12.5-10.638-22.694Z" transform="translate(-778.93 -374.991)" fill="#53414b"/> <path d="M837.637,442.478H805.5c-5.664,0-8.2-3.057-8.2-8.722v-5.291l40.339-1.534Z" transform="translate(-796.433 -392.244)" fill="#53414b"/> <path d="M742.937,461.342a12.184,12.184,0,0,1-12.184,12.184h-6.609v-13.41h18.793Z" transform="translate(-661.687 -407.263)" fill="#53414b"/> <path d="M742.024,437.328a12.185,12.185,0,0,1-6.663,15.89l-6.117,2.5-5.077-12.412,17.393-7.116Z" transform="translate(-661.696 -396.436)" fill="#53414b"/> <path d="M771.6,399.861h0a34.37,34.37,0,0,1,34.37,34.369v16.264H752.207a14.975,14.975,0,0,1-14.976-14.976V434.23A34.369,34.369,0,0,1,771.6,399.861Z" transform="translate(-731.886 -379.993)" fill="#53414b"/> <path d="M838.2,480.83c4.469.1,7.955,6.44,7.787,14.167s-3.928,13.912-8.4,13.814-7.955-6.441-7.787-14.168S833.732,480.733,838.2,480.83Z" transform="translate(-822.582 -416.637)" fill="#faa199"/> </g> <path d="M948.6,702.387l20.994,19.4-2.31,2.5a18.5,18.5,0,0,1-26.146,1.031l-20.995-19.4,2.309-2.5A18.5,18.5,0,0,1,948.6,702.387Z" transform="translate(-841.277 -514.683)" fill="#faa199"/> <path d="M906.737,737.264a14.783,14.783,0,0,1-16.691,12.59l-38.516-4.682a14.779,14.779,0,0,1-12.944-16.731h0a14.78,14.78,0,0,1,16.328-12.632l39.232,4.764A14.783,14.783,0,0,1,906.737,737.264Z" transform="translate(-733.836 -522.937)" fill="#fff"/> <path d="M862.9,741.569a17.679,17.679,0,0,1-19.96,15.056l-59.366-5.99A17.674,17.674,0,0,1,768.1,730.626h0a17.674,17.674,0,0,1,19.526-15.106l60.223,6.089A17.679,17.679,0,0,1,862.9,741.569Z" transform="translate(-651.424 -522.797)" fill="#3c5469"/> <g transform="translate(152.133 132.377)"> <path d="M748.633,605.383l23.044,10.48A21.543,21.543,0,0,1,784.3,635.844L781.388,804.9H679.16L672.6,621.713l34.575-16.33Z" transform="translate(-672.604 -605.383)" fill="#45627b"/> </g> <g transform="translate(165.251 314.236)"> <path d="M793.09,937.587h1.7a20.452,20.452,0,0,1,20.452,20.389l-22.665,135.99-22.616,8,1.88-140.111C774.29,948.459,780.3,937.587,793.09,937.587Z" transform="translate(-769.965 -937.587)" fill="#364c5e"/> </g> <rect width="109.003" height="41.668" transform="translate(117.487 314.236)" fill="#3c5469"/> <g transform="translate(86.239 314.236)"> <path d="M933.813,937.587A20.452,20.452,0,0,1,954.1,960.658l-27.4,133.308H902.565l9.555-135.545C913.056,948.378,922.412,937.587,933.813,937.587Z" transform="translate(-902.565 -937.587)" fill="#3c5469"/> </g> <g transform="translate(67.176 470.614)"><path d="M972.008,1223.246H996.18l-3.651,18.957H953.051A18.957,18.957,0,0,1,972.008,1223.246Z" transform="translate(-953.051 -1223.246)" fill="#292027"/></g> <g transform="translate(144.738 470.614)"><path d="M830.324,1223.246H854.5l-3.651,18.957H811.368A18.956,18.956,0,0,1,830.324,1223.246Z" transform="translate(-811.368 -1223.246)" fill="#292027"/></g> <path d="M14.333,0h33.84A14.333,14.333,0,0,1,62.506,14.333v1.294a0,0,0,0,1,0,0H0a0,0,0,0,1,0,0V14.333A14.333,14.333,0,0,1,14.333,0Z" transform="translate(172.727 123.426)" fill="#fff"/> <path d="M1092.671,724.024l20.995,19.4-2.309,2.5a18.5,18.5,0,0,1-26.146,1.031l-20.995-19.4,2.31-2.5A18.5,18.5,0,0,1,1092.671,724.024Z" transform="translate(-1064.215 -524.475)" fill="#faa199"/> <path d="M1050.806,758.9a14.783,14.783,0,0,1-16.691,12.59L995.6,766.809a14.778,14.778,0,0,1-12.944-16.731h0a14.779,14.779,0,0,1,16.328-12.632l39.232,4.764A14.783,14.783,0,0,1,1050.806,758.9Z" transform="translate(-956.772 -532.729)" fill="#fff"/> <path d="M1006.971,763.205a17.679,17.679,0,0,1-19.96,15.057l-59.366-5.99a17.674,17.674,0,0,1-15.48-20.009h0a17.673,17.673,0,0,1,19.526-15.106l60.223,6.089A17.679,17.679,0,0,1,1006.971,763.205Z" transform="translate(-874.362 -532.589)" fill="#3c5469"/> <path d="M904.034,635.172a17.679,17.679,0,0,1,3.46,24.761l-45.476,63.409a17.673,17.673,0,0,1-25.009,3.806h0a17.673,17.673,0,0,1-3.714-24.406l45.979-64.111A17.679,17.679,0,0,1,904.034,635.172Z" transform="translate(-733.387 -484.872)" fill="#45627b"/> </g> <g transform="translate(79.802 136.456)"> <g transform="translate(0)"> <g transform="translate(40.757 312.489)"> <path d="M851.239,1197.718l34.307-14.056v19.963l-38.225,2.446V1202.3A4.643,4.643,0,0,1,851.239,1197.718Z" transform="translate(-837.921 -1183.662)" fill="#2f2d31"/> <circle cx="8.556" cy="8.556" r="8.556" transform="translate(12.099 44.17) rotate(-135)" fill="#2f2d31"/> <rect width="5.4" height="5.05" transform="translate(9.4 20.919)" fill="#2f2d31"/> </g> <path d="M691.645,1013.979v11a9.856,9.856,0,0,0,9.591,10.1h149.2a9.837,9.837,0,0,0,9.567-10.1v-11a9.815,9.815,0,0,0-9.567-10.071h-149.2A9.834,9.834,0,0,0,691.645,1013.979Z" transform="translate(-686.402 -789.822)" fill="#2f2d31"/> <path d="M678.241,1013.979v11c0,5.573,4.058,10.1,9.058,10.1h80.1c5,0,9.036-4.522,9.036-10.1v-11c0-5.573-4.036-10.071-9.036-10.071H687.3C682.3,1003.908,678.241,1008.406,678.241,1013.979Z" transform="translate(-595.488 -789.822)" fill="#1e1d1f"/> <g transform="translate(104.283)"> <path d="M596.963,820.973c12.71-65.717-4.913-127.369,11.193-190.254,2.734-10.594,10.638-17.885,19.674-17.885h81.216c5.7,0,9.762,6.871,7.9,13.453-18.157,64.406.62,127.448-12.39,194.686-3.61,11.88-16.128,21.53-25.42,21.53H605.166C595.873,842.5,593.374,832.853,596.963,820.973Zm35.844-28.085H668.4c4.465,0,10.489-5.455,12.219-12.22,6.259-38.209-2.777-74,5.96-110.587.9-3.75-1.047-7.657-3.781-7.657h-39.07c-4.358,0-8.16,4.143-9.464,10.149-7.754,35.743.727,70.778-5.383,108.1C627.125,787.433,628.343,792.888,632.807,792.888Z" transform="translate(-595.394 -612.834)" fill="#1e1d1f"/> <g transform="translate(32.715 49.59)" opacity="0.55" style="mix-blend-mode: multiply; isolation: isolate;"> <path d="M656.009,833.884H691.6c4.465,0,10.489-5.455,12.219-12.22,6.259-38.208-2.777-74,5.96-110.586.9-3.75-1.047-7.658-3.781-7.658h-39.07c-4.357,0-8.16,4.143-9.463,10.149-7.754,35.743.726,70.779-5.383,108.1C650.327,828.43,651.545,833.884,656.009,833.884Z" transform="translate(-651.311 -703.42)" fill="#2f2d31"/> </g> </g> <path d="M0,0H77.611a0,0,0,0,1,0,0V0A11.611,11.611,0,0,1,66,11.611H11.611A11.611,11.611,0,0,1,0,0V0A0,0,0,0,1,0,0Z" transform="translate(46.187 245.253)" fill="#1e1d1f"/> <rect width="13.037" height="14.659" transform="translate(78.474 256.864)" fill="#2f2d31"/> <rect width="19.963" height="60.007" transform="translate(75.219 271.523)" fill="#1e1d1f"/> <g transform="translate(86.673 312.489)"> <path d="M782.571,1197.718l-73.442-14.056v19.963l77.36,2.446V1202.3A4.643,4.643,0,0,0,782.571,1197.718Z" transform="translate(-709.129 -1183.662)" fill="#1e1d1f"/> <ellipse cx="8.556" cy="8.556" rx="8.556" ry="8.556" transform="translate(67.991 42.166) rotate(-101.548)" fill="#1e1d1f"/> <rect width="5.4" height="5.05" transform="translate(71.96 20.919)" fill="#1e1d1f"/> </g> <g transform="translate(88.382 312.489)"> <path d="M811.8,1197.718l-34.307-14.056v19.963l38.225,2.446V1202.3A4.643,4.643,0,0,0,811.8,1197.718Z" transform="translate(-777.494 -1183.662)" fill="#2f2d31"/> <ellipse cx="8.556" cy="8.556" rx="8.556" ry="8.556" transform="translate(29.181 42.373) rotate(-103.374)" fill="#2f2d31"/> <rect width="5.4" height="5.05" transform="translate(32.826 20.919)" fill="#2f2d31"/> </g> <g transform="translate(0 312.489)"> <path d="M854.362,1197.718l73.443-14.056v19.963l-77.361,2.446V1202.3A4.643,4.643,0,0,1,854.362,1197.718Z" transform="translate(-841.132 -1183.662)" fill="#1e1d1f"/> <ellipse cx="8.556" cy="8.556" rx="8.556" ry="8.556" transform="translate(13.464 44.083) rotate(-141.892)" fill="#1e1d1f"/> <rect width="5.4" height="5.05" transform="translate(9.312 20.919)" fill="#1e1d1f"/> </g> </g> <g transform="translate(19.904 169.851)"> <path d="M869.923,998.5h9.2V946.017c0-7.562,5.211-13.715,11.615-13.715h14.474c6.405,0,11.616,6.153,11.616,13.715V998.5h9.2V946.017c0-12.634-9.338-22.913-20.817-22.913H890.738c-11.477,0-20.815,10.279-20.815,22.913Z" transform="translate(-869.923 -923.104)" fill="#1e1d1f"/> </g> </g> </g> </g></svg>